<svg xmlns="http://www.w3.org/2000/svg" width="20" height="20" viewBox="0 0 20 20">
    <path fill="#BFBFBF" fill-rule="nonzero" d="M13.623 1.004L11.225 1C8.53 1 6.789 2.739 6.789 5.43v2.042H4.377A.372.372 0 0 0 4 7.84v2.96c0 .203.169.367.377.367H6.79v7.467c0 .203.169.367.377.367h3.146a.372.372 0 0 0 .378-.367v-7.467h2.82a.372.372 0 0 0 .376-.367l.002-2.96c0-.097-.04-.19-.11-.26a.383.383 0 0 0-.268-.107h-2.82V5.741c0-.832.203-1.255 1.317-1.255h1.616A.372.372 0 0 0 14 4.119V1.37a.372.372 0 0 0-.377-.367z"/>
</svg>
