<svg xmlns="http://www.w3.org/2000/svg" width="68" height="68" viewBox="0 0 68 68">
    <g fill="#D8D8D8" fill-rule="evenodd">
        <path fill-rule="nonzero" d="M38 24a9 9 0 1 0 .001 18.001A9 9 0 0 0 38 24zM22.847 54c.1-.652.153-1.32.153-2 0-7.18-5.82-13-13-13a13.1 13.1 0 0 0-2 .153V21c0-3.3 2.7-6 6-6h7.2c.99 0 2.056-.768 2.37-1.707l1.86-5.585C25.744 6.768 26.81 6 27.8 6h20.4c.99 0 2.056.768 2.37 1.707l1.86 5.585c.313.94 1.38 1.708 2.37 1.708H62c3.3 0 6 2.7 6 6v27c0 3.3-2.7 6-6 6H22.847zM38 47c7.73 0 14-6.268 14-14 0-7.731-6.27-14-14-14-7.732 0-14 6.269-14 14 0 7.732 6.268 14 14 14z"/>
        <path d="M11 51v-4H9v4H5v2h4v4h2v-4h4v-2h-4zm-1 11C4.477 62 0 57.523 0 52s4.477-10 10-10 10 4.477 10 10-4.477 10-10 10z"/>
    </g>
</svg>
