<svg xmlns="http://www.w3.org/2000/svg" width="27" height="27" viewBox="0 0 27 27">
    <path fill="none" fill-rule="nonzero" stroke="#F68C28" stroke-width="2" d="M1 24h2.873V11.167H1V24zM17.04 3.12v-.082-.185c0-.176-.088-.423-.25-.693a.882.882 0 0 0-1.145.106l-6.627 6.85-.116.102c-.21.159-.34.47-.34.935v12.372c0 .811.66 1.475 1.455 1.475h10.847c.552 0 1.066-.352 1.286-.871l3.709-8.843c-.007.013.001-.022.008-.087.008-.084.01-.166.01-.335V10.83c-.219-.463-.712-.767-1.332-.767h-8.963L17.04 3.12z"/>
</svg>
