<?xml version="1.0" encoding="UTF-8"?>
<svg width="142px" height="50px" viewBox="0 0 142 50" version="1.1" xmlns="http://www.w3.org/2000/svg" xmlns:xlink="http://www.w3.org/1999/xlink">
    <!-- Generator: Sketch 51.2 (57519) - http://www.bohemiancoding.com/sketch -->
    <title>Logo</title>
    <desc>Created with Sketch.</desc>
    <defs></defs>
    <g id="Symbols" stroke="none" stroke-width="1" fill="none" fill-rule="evenodd">
        <g id="Header-Copy" transform="translate(-135.000000, -22.000000)">
            <g id="Group-21" transform="translate(135.000000, 22.000000)">
                <polygon id="Fill-61" fill="#F68C28" points="0 50 141.956204 50 141.956204 43.75 0 43.75"></polygon>
                <path d="M6.1892555,14.7275275 C6.7206491,14.8635597 7.3767863,14.9104908 8.27818208,14.9104908 C11.5976302,14.9104908 13.6449756,13.023724 13.6449756,9.84873218 C13.6449756,6.99613669 11.8837652,5.29233322 8.76940402,5.29233322 C7.49871083,5.29233322 6.639601,5.43040592 6.1892555,5.56983894 L6.1892555,14.7275275 Z M0,0.643432365 C1.92683039,0.274785069 4.63031298,0 8.44168781,0 C12.2932343,0 15.0397076,0.827756013 16.8826708,2.48462836 C18.644586,4.04831864 19.8321168,6.62544891 19.8321168,9.66440853 C19.8321168,12.7020078 18.9314258,15.2811786 17.2928447,17.0278322 C15.1616321,19.2832463 12.0070993,20.2966863 8.31905851,20.2966863 C7.49871083,20.2966863 6.76152553,20.2511155 6.1892555,20.1579334 L6.1892555,31.25 L0,31.25 L0,0.643432365 Z" id="Fill-62" fill="#555D63"></path>
                <polygon id="Fill-63" fill="#555D63" points="28.9957292 1.04166667 28.9957292 13.0498288 38.890315 13.0498288 38.890315 1.04166667 44.8832117 1.04166667 44.8832117 32.2916667 38.890315 32.2916667 38.890315 19.2166453 28.9957292 19.2166453 28.9957292 32.2916667 22.9635036 32.2916667 22.9635036 1.04166667"></polygon>
                <path d="M65.1744366,28.9366366 C66.0005556,29.1206878 66.9487472,29.1661913 68.1865062,29.1661913 C70.4164598,29.1661913 72.686158,28.385162 74.0459896,26.7776 C74.9956006,25.6739717 75.5740259,24.1567374 75.5740259,22.2272555 C75.5740259,19.8386643 74.6655789,18.2290648 73.3043278,17.1716191 C71.8600389,16.0713865 70.0026906,15.6088814 68.0225599,15.6088814 C67.1978604,15.6088814 66.0828836,15.7012466 65.1744366,15.7942909 L65.1744366,28.9366366 Z M77.1829708,1.04166667 L77.1829708,4.39737592 L65.1744366,4.39737592 L65.1744366,12.7136398 C66.0417196,12.5778086 67.6918284,12.4840851 68.5995658,12.4840851 C71.2418691,12.4840851 73.8408793,13.1299624 75.7791362,14.5541523 C77.8855978,16.0713865 79.3284672,18.5048021 79.3284672,22.1355695 C79.3284672,25.0301319 78.4633133,27.2373885 77.0183147,28.8456297 C74.7486166,31.3272653 70.9927559,32.2916667 67.1978604,32.2916667 C64.6797588,32.2916667 62.7826659,32.1082946 61.5839416,31.922885 L61.5839416,1.04166667 L77.1829708,1.04166667 Z" id="Fill-64" fill="#A9ACAE"></path>
                <path d="M94.3436632,20.606429 C90.4505348,20.5174076 86.0306481,21.2878113 86.0306481,25.5434386 C86.0306481,28.1257302 87.5697594,29.3479346 89.3956226,29.3479346 C91.9505753,29.3479346 93.5734099,27.5360467 94.1406345,25.6806521 C94.2641262,25.2716889 94.3436632,24.8185496 94.3436632,24.4115943 L94.3436632,20.606429 Z M94.8725147,31.7943513 L94.5892512,29.0313394 L94.4671549,29.0313394 C93.3696834,30.7535365 91.2633475,32.2916667 88.4642022,32.2916667 C84.488746,32.2916667 82.459854,29.1678836 82.459854,25.9972472 C82.459854,20.6967891 86.6781074,17.7992411 94.2641262,17.8440865 L94.2641262,17.3909472 C94.2641262,15.5797287 93.8176025,12.3187321 89.8009824,12.3187321 C87.9758169,12.3187321 86.0711143,12.953261 84.6903793,13.9485611 L83.8782644,11.3214241 C85.5024943,10.1454037 87.8530229,9.375 90.3291362,9.375 C96.332089,9.375 97.792361,13.9485611 97.792361,18.3420712 L97.792361,26.5407466 C97.792361,28.4423253 97.8739911,30.2997279 98.1167883,31.7943513 L94.8725147,31.7943513 Z" id="Fill-65" fill="#A9ACAE"></path>
                <polygon id="Fill-66" fill="#A9ACAE" points="107.974947 9.375 107.974947 18.6074427 117.483485 18.6074427 117.483485 9.375 121.080292 9.375 121.080292 32.2916667 117.483485 32.2916667 117.483485 21.9221374 107.974947 21.9221374 107.974947 32.2916667 104.379562 32.2916667 104.379562 9.375"></polygon>
                <path d="M129.922919,9.375 L129.922919,19.3183842 L130.797494,19.3183842 L138.377144,9.375 L142.833824,9.375 L134.045813,19.7459288 C137.293416,20.1237913 139.251003,22.5854962 140.83326,26.7041985 C141.376915,28.2191476 142.083881,30.4457379 143,32.2916667 L139.167915,32.2916667 C138.625692,31.2966285 137.919443,29.4982824 137.293416,27.604771 C135.918879,23.9101145 134.045813,22.2062341 130.630601,22.2062341 L129.922919,22.2062341 L129.922919,32.2916667 L126.29927,32.2916667 L126.29927,9.375 L129.922919,9.375 Z" id="Fill-67" fill="#A9ACAE"></path>
            </g>
        </g>
    </g>
</svg>