<svg xmlns="http://www.w3.org/2000/svg" width="20" height="20" viewBox="0 0 20 20">
    <path fill="#BFBFBF" fill-rule="nonzero" d="M19.406 3.906a.095.095 0 0 0-.113-.027c-.581.261-1.192.448-1.821.559a4.083 4.083 0 0 0 1.42-2.019.098.098 0 0 0-.03-.106.096.096 0 0 0-.11-.008 7.739 7.739 0 0 1-2.424.946A4.04 4.04 0 0 0 13.414 2c-2.23 0-4.043 1.834-4.043 4.087 0 .273.026.543.078.805a11.11 11.11 0 0 1-7.938-4.126.096.096 0 0 0-.158.012 4.12 4.12 0 0 0-.548 2.056 4.1 4.1 0 0 0 1.522 3.198 3.835 3.835 0 0 1-1.41-.461.095.095 0 0 0-.096 0 .098.098 0 0 0-.048.083v.052c0 1.8 1.173 3.38 2.841 3.905-.44.071-.895.066-1.343-.02a.097.097 0 0 0-.11.125 4.051 4.051 0 0 0 3.509 2.825 7.714 7.714 0 0 1-4.632 1.527 7.91 7.91 0 0 1-.93-.055.098.098 0 0 0-.064.179A11.192 11.192 0 0 0 6.146 18c7.09 0 11.325-5.822 11.325-11.45 0-.157-.003-.313-.009-.468a8.113 8.113 0 0 0 1.95-2.06.099.099 0 0 0-.006-.116z"/>
</svg>
