<svg xmlns="http://www.w3.org/2000/svg" width="25" height="20" viewBox="0 0 25 20">
    <path fill="#BFBFBF" fill-rule="nonzero" d="M24.403 15.644a1.68 1.68 0 0 0-.083-.16c-.426-.767-1.24-1.708-2.44-2.824l-.025-.025-.013-.013-.013-.013h-.013c-.545-.52-.89-.869-1.034-1.048-.265-.34-.324-.685-.18-1.035.103-.264.486-.821 1.15-1.673.35-.451.626-.813.83-1.086 1.474-1.959 2.113-3.21 1.917-3.756l-.076-.127c-.052-.077-.184-.147-.396-.211-.213-.064-.486-.075-.818-.032l-3.679.025a.477.477 0 0 0-.255.007l-.166.038-.064.032-.051.039a.568.568 0 0 0-.14.134.877.877 0 0 0-.128.223c-.4 1.03-.856 1.989-1.367 2.875-.315.528-.604.986-.869 1.373-.264.388-.485.673-.664.856-.179.183-.34.33-.485.44-.145.112-.256.158-.332.141a9.358 9.358 0 0 1-.218-.05.85.85 0 0 1-.287-.314 1.402 1.402 0 0 1-.147-.498c-.025-.2-.04-.373-.045-.518-.004-.144-.002-.349.007-.613.009-.264.013-.443.013-.536 0-.324.006-.675.019-1.054.013-.38.023-.68.032-.901.008-.222.013-.456.013-.703 0-.247-.016-.44-.045-.581a1.989 1.989 0 0 0-.134-.409.688.688 0 0 0-.262-.307 1.476 1.476 0 0 0-.428-.172c-.451-.102-1.026-.158-1.724-.166-1.584-.017-2.602.085-3.053.307a1.72 1.72 0 0 0-.485.383c-.154.187-.175.29-.064.306.51.077.872.26 1.085.55l.077.153c.06.11.12.307.179.588.06.28.098.592.115.932a9.947 9.947 0 0 1 0 1.597 19.03 19.03 0 0 1-.122 1.035 2.072 2.072 0 0 1-.172.6 2.533 2.533 0 0 1-.153.281.22.22 0 0 1-.064.064.957.957 0 0 1-.345.064c-.12 0-.264-.06-.434-.179a3.065 3.065 0 0 1-.53-.492c-.184-.208-.39-.5-.62-.875-.23-.374-.468-.817-.715-1.328l-.205-.37a31.873 31.873 0 0 1-.523-1.042 20.078 20.078 0 0 1-.588-1.323.842.842 0 0 0-.306-.408l-.064-.039a.874.874 0 0 0-.205-.108 1.355 1.355 0 0 0-.293-.083l-3.5.025c-.358 0-.6.081-.728.243l-.052.077A.413.413 0 0 0 0 4.164c0 .094.026.209.077.345a42.167 42.167 0 0 0 1.667 3.475C2.344 9.1 2.866 10 3.308 10.68a31.83 31.83 0 0 0 1.354 1.929c.46.604.764.992.913 1.162.15.17.267.298.352.384l.32.306c.204.205.504.45.9.735s.834.566 1.315.843a7.137 7.137 0 0 0 1.68.677c.639.175 1.26.245 1.865.211h1.469c.298-.026.524-.12.677-.281l.05-.064a.847.847 0 0 0 .097-.236c.03-.107.044-.224.044-.351a4.21 4.21 0 0 1 .083-.99c.064-.294.136-.516.218-.665a1.633 1.633 0 0 1 .492-.562.834.834 0 0 1 .101-.045c.205-.068.445-.002.722.199.277.2.537.447.78.74.242.295.534.625.874.99.341.367.64.64.895.818l.255.154c.17.102.392.196.664.28.273.086.51.107.716.065l3.27-.051c.323 0 .574-.054.753-.16.179-.107.285-.224.32-.351a.99.99 0 0 0 .006-.435 1.604 1.604 0 0 0-.09-.338z"/>
</svg>
